# xmcd
#
# Track frame offsets:
#	150
#	42786
#	64122
#	87693
#	102441
#	127073
#	161925
#	181372
#	195284
#	212964
#	236813
#	262469
#
# Disc length: 3762 seconds
# Revision: 0
# Processed by: cddbd v1.5.2PL0 Copyright (c) Steve Scherf et al.
# Submitted via: dBpowerAMP V12.0
#
DISCID=bd0eb00c
DTITLE=Sugarcane Collins - Downunder The Blues
DYEAR=2012
DGENRE=Blues
TTITLE0=The Blues Downunder
TTITLE1=Click Go The Shears
TTITLE2=Some Fool Done Stole My Mojo
TTITLE3=It's a Mystery
TTITLE4=Downunder The Blues
TTITLE5=Take Your Time
TTITLE6=Saddle Up My Pony
TTITLE7=Two To The Valley
TTITLE8=Flowers By The Roadside
TTITLE9=Berry's Creek Dreaming
TTITLE10=Line in the Sand
TTITLE11=Connect the Dots
EXTD=
EXTT0=
EXTT1=
EXTT2=
EXTT3=
EXTT4=
EXTT5=
EXTT6=
EXTT7=
EXTT8=
EXTT9=
EXTT10=
EXTT11=
PLAYORDER=
